<?xml version="1.0" encoding="UTF-8" standalone="no"?>
<!DOCTYPE svg PUBLIC "-//W3C//DTD SVG 1.1//EN"
 "http://www.w3.org/Graphics/SVG/1.1/DTD/svg11.dtd">
<!-- Generated by graphviz version 2.40.1 (20161225.0304)
 -->
<!-- Title: dependencies Pages: 1 -->
<svg width="2700pt" height="284pt"
 viewBox="0.00 0.00 2700.00 284.00" xmlns="http://www.w3.org/2000/svg" xmlns:xlink="http://www.w3.org/1999/xlink">
<g id="graph0" class="graph" transform="scale(1 1) rotate(0) translate(4 280)">
<title>dependencies</title>
<polygon fill="#ffffff" stroke="transparent" points="-4,4 -4,-280 2696,-280 2696,4 -4,4"/>
<text text-anchor="start" x="1325.0091" y="-42.4" font-family="sans-serif" font-weight="bold" font-size="14.00" fill="#000000">Legend</text>
<polygon fill="#ffffb3" stroke="transparent" points="1112,-10 1112,-30 1132,-30 1132,-10 1112,-10"/>
<text text-anchor="start" x="1135.629" y="-15.4" font-family="sans-serif" font-size="14.00" fill="#000000"> &#160;Declarations</text>
<polygon fill="#8dd3c7" stroke="transparent" points="1225,-10 1225,-30 1245,-30 1245,-10 1225,-10"/>
<text text-anchor="start" x="1248.7251" y="-15.4" font-family="sans-serif" font-size="14.00" fill="#000000"> &#160;Module</text>
<polygon fill="#80b1d3" stroke="transparent" points="1311,-10 1311,-30 1331,-30 1331,-10 1311,-10"/>
<text text-anchor="start" x="1334.7812" y="-15.4" font-family="sans-serif" font-size="14.00" fill="#000000"> &#160;Bootstrap</text>
<polygon fill="#fdb462" stroke="transparent" points="1408,-10 1408,-30 1428,-30 1428,-10 1408,-10"/>
<text text-anchor="start" x="1431.6732" y="-15.4" font-family="sans-serif" font-size="14.00" fill="#000000"> &#160;Providers</text>
<polygon fill="#fb8072" stroke="transparent" points="1504,-10 1504,-30 1524,-30 1524,-10 1504,-10"/>
<text text-anchor="start" x="1527.7258" y="-15.4" font-family="sans-serif" font-size="14.00" fill="#000000"> &#160;Exports</text>
<g id="clust1" class="cluster">
<title>cluster_AppModule</title>
<polygon fill="none" stroke="#000000" stroke-dasharray="1,5" points="8,-70 8,-268 2684,-268 2684,-70 8,-70"/>
</g>
<g id="clust2" class="cluster">
<title>cluster_AppModule_declarations</title>
<polygon fill="none" stroke="#000000" points="738,-78 738,-130 2676,-130 2676,-78 738,-78"/>
</g>
<g id="clust15" class="cluster">
<title>cluster_AppModule_imports</title>
<polygon fill="none" stroke="#000000" points="586,-78 586,-130 730,-130 730,-78 586,-78"/>
</g>
<g id="clust17" class="cluster">
<title>cluster_AppModule_bootstrap</title>
<polygon fill="none" stroke="#000000" points="1449,-208 1449,-260 1573,-260 1573,-208 1449,-208"/>
</g>
<g id="clust18" class="cluster">
<title>cluster_AppModule_providers</title>
<polygon fill="none" stroke="#000000" points="16,-78 16,-130 578,-130 578,-78 16,-78"/>
</g>
<!-- AppComponent -->
<g id="node1" class="node">
<title>AppComponent</title>
<polygon fill="#ffffb3" stroke="#000000" points="2667.9399,-122 2562.0601,-122 2562.0601,-86 2667.9399,-86 2667.9399,-122"/>
<text text-anchor="middle" x="2615" y="-99.8" font-family="Times,serif" font-size="14.00" fill="#000000">AppComponent</text>
</g>
<!-- AppModule -->
<g id="node13" class="node">
<title>AppModule</title>
<polygon fill="#8dd3c7" stroke="#000000" points="1552.6571,-187 1549.6571,-191 1528.6571,-191 1525.6571,-187 1469.3429,-187 1469.3429,-151 1552.6571,-151 1552.6571,-187"/>
<text text-anchor="middle" x="1511" y="-164.8" font-family="Times,serif" font-size="14.00" fill="#000000">AppModule</text>
</g>
<!-- AppComponent&#45;&gt;AppModule -->
<g id="edge1" class="edge">
<title>AppComponent&#45;&gt;AppModule</title>
<path fill="none" stroke="#000000" d="M2615,-122.3228C2615,-145.6602 2615,-183 2615,-183 2615,-183 1562.93,-183 1562.93,-183"/>
<polygon fill="#000000" stroke="#000000" points="1562.93,-179.5001 1552.93,-183 1562.93,-186.5001 1562.93,-179.5001"/>
</g>
<!-- DataTableComponent -->
<g id="node2" class="node">
<title>DataTableComponent</title>
<polygon fill="#ffffb3" stroke="#000000" points="2543.6317,-122 2404.3683,-122 2404.3683,-86 2543.6317,-86 2543.6317,-122"/>
<text text-anchor="middle" x="2474" y="-99.8" font-family="Times,serif" font-size="14.00" fill="#000000">DataTableComponent</text>
</g>
<!-- DataTableComponent&#45;&gt;AppModule -->
<g id="edge2" class="edge">
<title>DataTableComponent&#45;&gt;AppModule</title>
<path fill="none" stroke="#000000" d="M2474,-122.2921C2474,-144.2057 2474,-178 2474,-178 2474,-178 1562.688,-178 1562.688,-178"/>
<polygon fill="#000000" stroke="#000000" points="1562.688,-174.5001 1552.688,-178 1562.688,-181.5001 1562.688,-174.5001"/>
</g>
<!-- DialogComponent -->
<g id="node3" class="node">
<title>DialogComponent</title>
<polygon fill="#ffffb3" stroke="#000000" points="2385.9356,-122 2266.0644,-122 2266.0644,-86 2385.9356,-86 2385.9356,-122"/>
<text text-anchor="middle" x="2326" y="-99.8" font-family="Times,serif" font-size="14.00" fill="#000000">DialogComponent</text>
</g>
<!-- DialogComponent&#45;&gt;AppModule -->
<g id="edge3" class="edge">
<title>DialogComponent&#45;&gt;AppModule</title>
<path fill="none" stroke="#000000" d="M2326,-122.0267C2326,-142.7672 2326,-174 2326,-174 2326,-174 1562.8187,-174 1562.8187,-174"/>
<polygon fill="#000000" stroke="#000000" points="1562.8187,-170.5001 1552.8187,-174 1562.8186,-177.5001 1562.8187,-170.5001"/>
</g>
<!-- PositionPipe -->
<g id="node4" class="node">
<title>PositionPipe</title>
<polygon fill="#ffffb3" stroke="#000000" points="2248.2871,-122 2161.7129,-122 2161.7129,-86 2248.2871,-86 2248.2871,-122"/>
<text text-anchor="middle" x="2205" y="-99.8" font-family="Times,serif" font-size="14.00" fill="#000000">PositionPipe</text>
</g>
<!-- PositionPipe&#45;&gt;AppModule -->
<g id="edge4" class="edge">
<title>PositionPipe&#45;&gt;AppModule</title>
<path fill="none" stroke="#000000" d="M2205,-122.1061C2205,-141.3391 2205,-169 2205,-169 2205,-169 1562.8499,-169 1562.8499,-169"/>
<polygon fill="#000000" stroke="#000000" points="1562.85,-165.5001 1552.8499,-169 1562.8499,-172.5001 1562.85,-165.5001"/>
</g>
<!-- RowPipe -->
<g id="node5" class="node">
<title>RowPipe</title>
<polygon fill="#ffffb3" stroke="#000000" points="2143.8318,-122 2076.1682,-122 2076.1682,-86 2143.8318,-86 2143.8318,-122"/>
<text text-anchor="middle" x="2110" y="-99.8" font-family="Times,serif" font-size="14.00" fill="#000000">RowPipe</text>
</g>
<!-- RowPipe&#45;&gt;AppModule -->
<g id="edge5" class="edge">
<title>RowPipe&#45;&gt;AppModule</title>
<path fill="none" stroke="#000000" d="M2110,-122.302C2110,-140.2699 2110,-165 2110,-165 2110,-165 1563.1205,-165 1563.1205,-165"/>
<polygon fill="#000000" stroke="#000000" points="1563.1206,-161.5001 1553.1205,-165 1563.1205,-168.5001 1563.1206,-161.5001"/>
</g>
<!-- DataTableDetailComponent -->
<g id="node6" class="node">
<title>DataTableDetailComponent</title>
<polygon fill="#ffffb3" stroke="#000000" points="2057.8389,-122 1884.1611,-122 1884.1611,-86 2057.8389,-86 2057.8389,-122"/>
<text text-anchor="middle" x="1971" y="-99.8" font-family="Times,serif" font-size="14.00" fill="#000000">DataTableDetailComponent</text>
</g>
<!-- DataTableDetailComponent&#45;&gt;AppModule -->
<g id="edge6" class="edge">
<title>DataTableDetailComponent&#45;&gt;AppModule</title>
<path fill="none" stroke="#000000" d="M1971,-122.027C1971,-138.3976 1971,-160 1971,-160 1971,-160 1563.0414,-160 1563.0414,-160"/>
<polygon fill="#000000" stroke="#000000" points="1563.0414,-156.5001 1553.0414,-160 1563.0413,-163.5001 1563.0414,-156.5001"/>
</g>
<!-- WebrfcPageComponent -->
<g id="node7" class="node">
<title>WebrfcPageComponent</title>
<polygon fill="#ffffb3" stroke="#000000" points="1866.01,-122 1715.99,-122 1715.99,-86 1866.01,-86 1866.01,-122"/>
<text text-anchor="middle" x="1791" y="-99.8" font-family="Times,serif" font-size="14.00" fill="#000000">WebrfcPageComponent</text>
</g>
<!-- WebrfcPageComponent&#45;&gt;AppModule -->
<g id="edge7" class="edge">
<title>WebrfcPageComponent&#45;&gt;AppModule</title>
<path fill="none" stroke="#000000" d="M1791,-122.1871C1791,-137.1824 1791,-156 1791,-156 1791,-156 1562.9188,-156 1562.9188,-156"/>
<polygon fill="#000000" stroke="#000000" points="1562.9189,-152.5001 1552.9188,-156 1562.9188,-159.5001 1562.9189,-152.5001"/>
</g>
<!-- DataTablesPageComponent -->
<g id="node8" class="node">
<title>DataTablesPageComponent</title>
<polygon fill="#ffffb3" stroke="#000000" points="1698.2878,-122 1525.7122,-122 1525.7122,-86 1698.2878,-86 1698.2878,-122"/>
<text text-anchor="middle" x="1612" y="-99.8" font-family="Times,serif" font-size="14.00" fill="#000000">DataTablesPageComponent</text>
</g>
<!-- DataTablesPageComponent&#45;&gt;AppModule -->
<g id="edge8" class="edge">
<title>DataTablesPageComponent&#45;&gt;AppModule</title>
<path fill="none" stroke="#000000" d="M1539.3422,-122.1061C1539.3422,-122.1061 1539.3422,-140.991 1539.3422,-140.991"/>
<polygon fill="#000000" stroke="#000000" points="1535.8423,-140.9909 1539.3422,-150.991 1542.8423,-140.991 1535.8423,-140.9909"/>
</g>
<!-- WebDataTablePageComponent -->
<g id="node9" class="node">
<title>WebDataTablePageComponent</title>
<polygon fill="#ffffb3" stroke="#000000" points="1507.7724,-122 1314.2276,-122 1314.2276,-86 1507.7724,-86 1507.7724,-122"/>
<text text-anchor="middle" x="1411" y="-99.8" font-family="Times,serif" font-size="14.00" fill="#000000">WebDataTablePageComponent</text>
</g>
<!-- WebDataTablePageComponent&#45;&gt;AppModule -->
<g id="edge9" class="edge">
<title>WebDataTablePageComponent&#45;&gt;AppModule</title>
<path fill="none" stroke="#000000" d="M1488.4039,-122.1061C1488.4039,-122.1061 1488.4039,-140.991 1488.4039,-140.991"/>
<polygon fill="#000000" stroke="#000000" points="1484.904,-140.9909 1488.4039,-150.991 1491.904,-140.991 1484.904,-140.9909"/>
</g>
<!-- BaseDataTableComponent -->
<g id="node10" class="node">
<title>BaseDataTableComponent</title>
<polygon fill="#ffffb3" stroke="#000000" points="1296.3417,-122 1129.6583,-122 1129.6583,-86 1296.3417,-86 1296.3417,-122"/>
<text text-anchor="middle" x="1213" y="-99.8" font-family="Times,serif" font-size="14.00" fill="#000000">BaseDataTableComponent</text>
</g>
<!-- BaseDataTableComponent&#45;&gt;AppModule -->
<g id="edge10" class="edge">
<title>BaseDataTableComponent&#45;&gt;AppModule</title>
<path fill="none" stroke="#000000" d="M1213,-122.1871C1213,-137.1824 1213,-156 1213,-156 1213,-156 1459.2506,-156 1459.2506,-156"/>
<polygon fill="#000000" stroke="#000000" points="1459.2506,-159.5001 1469.2506,-156 1459.2506,-152.5001 1459.2506,-159.5001"/>
</g>
<!-- WebDataTableComponent -->
<g id="node11" class="node">
<title>WebDataTableComponent</title>
<polygon fill="#ffffb3" stroke="#000000" points="1112.0604,-122 945.9396,-122 945.9396,-86 1112.0604,-86 1112.0604,-122"/>
<text text-anchor="middle" x="1029" y="-99.8" font-family="Times,serif" font-size="14.00" fill="#000000">WebDataTableComponent</text>
</g>
<!-- WebDataTableComponent&#45;&gt;AppModule -->
<g id="edge11" class="edge">
<title>WebDataTableComponent&#45;&gt;AppModule</title>
<path fill="none" stroke="#000000" d="M1029,-122.027C1029,-138.3976 1029,-160 1029,-160 1029,-160 1459.0688,-160 1459.0688,-160"/>
<polygon fill="#000000" stroke="#000000" points="1459.0689,-163.5001 1469.0688,-160 1459.0688,-156.5001 1459.0689,-163.5001"/>
</g>
<!-- WebrfcDataTableComponent -->
<g id="node12" class="node">
<title>WebrfcDataTableComponent</title>
<polygon fill="#ffffb3" stroke="#000000" points="927.5966,-122 746.4034,-122 746.4034,-86 927.5966,-86 927.5966,-122"/>
<text text-anchor="middle" x="837" y="-99.8" font-family="Times,serif" font-size="14.00" fill="#000000">WebrfcDataTableComponent</text>
</g>
<!-- WebrfcDataTableComponent&#45;&gt;AppModule -->
<g id="edge12" class="edge">
<title>WebrfcDataTableComponent&#45;&gt;AppModule</title>
<path fill="none" stroke="#000000" d="M837,-122.302C837,-140.2699 837,-165 837,-165 837,-165 1459.0929,-165 1459.0929,-165"/>
<polygon fill="#000000" stroke="#000000" points="1459.093,-168.5001 1469.0929,-165 1459.0929,-161.5001 1459.093,-168.5001"/>
</g>
<!-- AppComponent  -->
<g id="node15" class="node">
<title>AppComponent </title>
<polygon fill="#80b1d3" stroke="#000000" points="1565.439,-252 1456.561,-252 1456.561,-216 1565.439,-216 1565.439,-252"/>
<text text-anchor="middle" x="1511" y="-229.8" font-family="Times,serif" font-size="14.00" fill="#000000">AppComponent </text>
</g>
<!-- AppModule&#45;&gt;AppComponent  -->
<g id="edge14" class="edge">
<title>AppModule&#45;&gt;AppComponent </title>
<path fill="none" stroke="#000000" stroke-dasharray="1,5" d="M1511,-187.1061C1511,-187.1061 1511,-205.991 1511,-205.991"/>
<polygon fill="#000000" stroke="#000000" points="1507.5001,-205.9909 1511,-215.991 1514.5001,-205.991 1507.5001,-205.9909"/>
</g>
<!-- AppRoutingModule -->
<g id="node14" class="node">
<title>AppRoutingModule</title>
<polygon fill="#8dd3c7" stroke="#000000" points="722.2744,-122 719.2744,-126 698.2744,-126 695.2744,-122 593.7256,-122 593.7256,-86 722.2744,-86 722.2744,-122"/>
<text text-anchor="middle" x="658" y="-99.8" font-family="Times,serif" font-size="14.00" fill="#000000">AppRoutingModule</text>
</g>
<!-- AppRoutingModule&#45;&gt;AppModule -->
<g id="edge13" class="edge">
<title>AppRoutingModule&#45;&gt;AppModule</title>
<path fill="none" stroke="#000000" d="M658,-122.1061C658,-141.3391 658,-169 658,-169 658,-169 1459.2806,-169 1459.2806,-169"/>
<polygon fill="#000000" stroke="#000000" points="1459.2806,-172.5001 1469.2806,-169 1459.2806,-165.5001 1459.2806,-172.5001"/>
</g>
<!-- DialogService -->
<g id="node16" class="node">
<title>DialogService</title>
<ellipse fill="#fdb462" stroke="#000000" cx="504" cy="-104" rx="66.0492" ry="18"/>
<text text-anchor="middle" x="504" y="-99.8" font-family="Times,serif" font-size="14.00" fill="#000000">DialogService</text>
</g>
<!-- DialogService&#45;&gt;AppModule -->
<g id="edge15" class="edge">
<title>DialogService&#45;&gt;AppModule</title>
<path fill="none" stroke="#000000" d="M504,-122.0267C504,-142.7672 504,-174 504,-174 504,-174 1459.3303,-174 1459.3303,-174"/>
<polygon fill="#000000" stroke="#000000" points="1459.3304,-177.5001 1469.3303,-174 1459.3303,-170.5001 1459.3304,-177.5001"/>
</g>
<!-- DataTableDetailService -->
<g id="node17" class="node">
<title>DataTableDetailService</title>
<ellipse fill="#fdb462" stroke="#000000" cx="316" cy="-104" rx="103.6026" ry="18"/>
<text text-anchor="middle" x="316" y="-99.8" font-family="Times,serif" font-size="14.00" fill="#000000">DataTableDetailService</text>
</g>
<!-- DataTableDetailService&#45;&gt;AppModule -->
<g id="edge16" class="edge">
<title>DataTableDetailService&#45;&gt;AppModule</title>
<path fill="none" stroke="#000000" d="M316,-122.2921C316,-144.2057 316,-178 316,-178 316,-178 1459.17,-178 1459.17,-178"/>
<polygon fill="#000000" stroke="#000000" points="1459.17,-181.5001 1469.17,-178 1459.17,-174.5001 1459.17,-181.5001"/>
</g>
<!-- DataSourceService -->
<g id="node18" class="node">
<title>DataSourceService</title>
<ellipse fill="#fdb462" stroke="#000000" cx="109" cy="-104" rx="85.0676" ry="18"/>
<text text-anchor="middle" x="109" y="-99.8" font-family="Times,serif" font-size="14.00" fill="#000000">DataSourceService</text>
</g>
<!-- DataSourceService&#45;&gt;AppModule -->
<g id="edge17" class="edge">
<title>DataSourceService&#45;&gt;AppModule</title>
<path fill="none" stroke="#000000" d="M109,-122.3228C109,-145.6602 109,-183 109,-183 109,-183 1459.0409,-183 1459.0409,-183"/>
<polygon fill="#000000" stroke="#000000" points="1459.041,-186.5001 1469.0409,-183 1459.0409,-179.5001 1459.041,-186.5001"/>
</g>
</g>
</svg>
